<?xml version="1.0" encoding="utf-8"?>
<!-- Generator: Adobe Illustrator 16.0.0, SVG Export Plug-In . SVG Version: 6.00 Build 0)  -->
<!DOCTYPE svg PUBLIC "-//W3C//DTD SVG 1.1//EN" "http://www.w3.org/Graphics/SVG/1.1/DTD/svg11.dtd">
<svg version="1.1" id="Слой_1" xmlns="http://www.w3.org/2000/svg" xmlns:xlink="http://www.w3.org/1999/xlink" x="0px" y="0px"
	 width="170.334px" height="117.105px" viewBox="-69.167 -42.553 170.334 117.105"
	 enable-background="new -69.167 -42.553 170.334 117.105" xml:space="preserve">
<g id="Menu">
	<path fill="#FFFFFF" d="M-63.844-31.906H95.844c2.938,0,5.323-2.386,5.323-5.323s-2.386-5.323-5.323-5.323H-63.844
		c-2.938,0-5.323,2.386-5.323,5.323S-66.781-31.906-63.844-31.906z"/>
	<path fill="#FFFFFF" d="M95.844,10.677H-63.844c-2.938,0-5.323,2.386-5.323,5.323c0,2.937,2.386,5.322,5.323,5.322H95.844
		c2.938,0,5.323-2.386,5.323-5.322C101.167,13.063,98.781,10.677,95.844,10.677z"/>
	<path fill="#FFFFFF" d="M95.844,63.906H-63.844c-2.938,0-5.323,2.386-5.323,5.323c0,2.937,2.386,5.323,5.323,5.323H95.844
		c2.938,0,5.323-2.387,5.323-5.323C101.167,66.292,98.781,63.906,95.844,63.906z"/>
</g>
</svg>
