<?xml version="1.0" encoding="utf-8"?>
<!-- Generator: Adobe Illustrator 16.0.0, SVG Export Plug-In . SVG Version: 6.00 Build 0)  -->
<!DOCTYPE svg PUBLIC "-//W3C//DTD SVG 1.1//EN" "http://www.w3.org/Graphics/SVG/1.1/DTD/svg11.dtd">
<svg version="1.1" id="Layer_1" xmlns="http://www.w3.org/2000/svg" xmlns:xlink="http://www.w3.org/1999/xlink" x="0px" y="0px"
	 width="593.599px" height="675.021px" viewBox="103.2 62.49 593.599 675.021" enable-background="new 103.2 62.49 593.599 675.021"
	 xml:space="preserve">
<g>
	<path fill="#032A54" d="M696.384,238.688c-0.648-8.429-7.672-14.927-16.118-14.927H119.751c-8.392,0-15.377,6.407-16.099,14.782
		c-0.253,2.852-0.452,5.721-0.452,8.645v387.063c0,56.945,46.332,103.26,103.259,103.26h387.082
		c56.926,0,103.258-46.313,103.258-103.26V247.188C696.799,244.319,696.601,241.485,696.384,238.688z M664.455,634.251
		c0,39.113-31.821,70.916-70.914,70.916H206.459c-39.094,0-70.915-31.803-70.915-70.916V256.104h528.911V634.251z"/>
	<path fill="#032A54" d="M298.456,205.296c0.27,0,0.542,0,0.793-0.018c8.934-0.433,15.811-8.014,15.378-16.93
		c-1.75-36.279,12.002-65.085,38.751-81.113c27.884-16.714,65.391-16.714,93.278,0c26.729,16.009,40.501,44.815,38.732,81.113
		c-0.415,8.916,6.462,16.497,15.377,16.93c8.79,0.343,16.497-6.443,16.932-15.377c2.328-48.047-17.508-88.296-54.419-110.425
		c-37.849-22.651-88.675-22.651-126.523,0.018c-36.928,22.11-56.764,62.359-54.436,110.407
		C282.735,198.564,289.883,205.296,298.456,205.296z"/>
</g>
</svg>
