<?xml version="1.0" encoding="utf-8"?>
<!-- Generator: Adobe Illustrator 16.0.0, SVG Export Plug-In . SVG Version: 6.00 Build 0)  -->
<!DOCTYPE svg PUBLIC "-//W3C//DTD SVG 1.1//EN" "http://www.w3.org/Graphics/SVG/1.1/DTD/svg11.dtd">
<svg version="1.1" id="Layer_1" xmlns="http://www.w3.org/2000/svg" xmlns:xlink="http://www.w3.org/1999/xlink" x="0px" y="0px"
	 width="74.597px" height="74.598px" viewBox="0 0 74.597 74.598" enable-background="new 0 0 74.597 74.598" xml:space="preserve">
<path fill="#142D52" d="M73.701,74.597c-0.087,0-0.176-0.012-0.262-0.04c-0.185-0.056-18.589-5.644-36.142-5.644
	c-17.554,0-35.955,5.588-36.142,5.644c-0.312,0.099-0.653,0.014-0.885-0.215c-0.236-0.228-0.327-0.566-0.238-0.881
	c0.07-0.248,6.928-24.869,6.928-36.163c0-11.296-6.857-35.915-6.928-36.163c-0.084-0.299-0.007-0.619,0.203-0.848
	c0.209-0.225,0.522-0.326,0.828-0.272c0.22,0.043,22.178,4.263,36.233,4.263c14.055,0,36.015-4.22,36.234-4.263
	c0.286-0.053,0.592,0.036,0.8,0.244c0.212,0.21,0.305,0.511,0.248,0.802c-0.049,0.256-4.86,25.629-4.86,36.237
	s4.812,35.981,4.86,36.237c0.061,0.307-0.049,0.625-0.28,0.833C74.132,74.518,73.918,74.597,73.701,74.597 M37.298,67.124
	c14.994,0,30.576,4.01,35.258,5.316c-1.031-5.584-4.625-25.713-4.625-35.143c0-9.512,3.656-29.91,4.65-35.286
	C67.632,2.919,49.54,6.067,37.298,6.067c-12.147,0-30.047-3.099-35.162-4.032C3.606,7.47,8.75,27.194,8.75,37.298
	c0,10.008-5.046,29.456-6.57,35.104C7.021,71.057,22.445,67.124,37.298,67.124"/>
<path fill="#142D52" d="M34.058,32.682c-0.229,0-0.458-0.087-0.633-0.262L11.506,10.5c-0.349-0.349-0.349-0.915,0-1.265
	c0.349-0.349,0.916-0.349,1.265,0l21.92,21.92c0.35,0.349,0.35,0.915,0,1.265C34.516,32.594,34.287,32.682,34.058,32.682"/>
<path fill="#142D52" d="M13.401,17.333c-0.419,0-0.795-0.297-0.877-0.725l-1.515-7.87l7.87,1.517
	c0.484,0.094,0.802,0.562,0.709,1.048c-0.094,0.488-0.575,0.79-1.048,0.71l-5.274-1.017l1.016,5.273
	c0.093,0.486-0.226,0.954-0.71,1.048C13.516,17.329,13.46,17.333,13.401,17.333"/>
<path fill="#142D52" d="M42.424,32.682c-0.229,0-0.458-0.087-0.633-0.262c-0.35-0.35-0.35-0.916,0-1.265l21.92-21.92
	c0.349-0.349,0.916-0.349,1.265,0c0.35,0.35,0.35,0.916,0,1.265l-21.919,21.92C42.882,32.594,42.653,32.682,42.424,32.682"/>
<path fill="#142D52" d="M63.078,17.333c-0.058,0-0.113-0.005-0.171-0.016c-0.486-0.094-0.802-0.562-0.71-1.048l1.018-5.273
	l-5.273,1.017c-0.473,0.085-0.954-0.222-1.048-0.71c-0.093-0.486,0.223-0.954,0.709-1.048l7.87-1.517l-1.518,7.87
	C63.873,17.037,63.497,17.333,63.078,17.333"/>
<path fill="#142D52" d="M64.344,63.771c-0.229,0-0.458-0.087-0.634-0.262l-21.919-21.92c-0.349-0.349-0.349-0.915,0-1.265
	c0.35-0.349,0.916-0.349,1.266,0l21.92,21.92c0.349,0.349,0.349,0.915,0,1.265C64.802,63.684,64.572,63.771,64.344,63.771"/>
<path fill="#142D52" d="M65.473,64.005l-7.87-1.517c-0.485-0.094-0.803-0.562-0.709-1.048c0.094-0.487,0.57-0.807,1.048-0.709
	l5.272,1.017l-1.016-5.274c-0.093-0.485,0.223-0.954,0.709-1.048c0.472-0.094,0.954,0.222,1.048,0.709L65.473,64.005z"/>
<path fill="#142D52" d="M12.139,63.771c-0.229,0-0.458-0.087-0.634-0.262c-0.349-0.35-0.349-0.916,0-1.265l21.921-21.92
	c0.349-0.349,0.916-0.349,1.265,0c0.349,0.35,0.349,0.916,0,1.265l-21.919,21.92C12.597,63.684,12.367,63.771,12.139,63.771"/>
<path fill="#142D52" d="M11.01,64.005l1.515-7.87c0.093-0.487,0.563-0.807,1.048-0.709c0.484,0.094,0.803,0.563,0.71,1.048
	l-1.015,5.274l5.272-1.017c0.478-0.095,0.954,0.222,1.049,0.709c0.093,0.486-0.225,0.954-0.709,1.048L11.01,64.005z"/>
</svg>
