<?xml version="1.0" encoding="utf-8"?>
<!-- Generator: Adobe Illustrator 16.0.0, SVG Export Plug-In . SVG Version: 6.00 Build 0)  -->
<!DOCTYPE svg PUBLIC "-//W3C//DTD SVG 1.1//EN" "http://www.w3.org/Graphics/SVG/1.1/DTD/svg11.dtd">
<svg version="1.1" id="Layer_1" xmlns="http://www.w3.org/2000/svg" xmlns:xlink="http://www.w3.org/1999/xlink" x="0px" y="0px"
	 width="119.241px" height="119.241px" viewBox="0 0 119.241 119.241" enable-background="new 0 0 119.241 119.241"
	 xml:space="preserve">
<rect x="1.43" y="1.43" fill="none" stroke="#000000" stroke-width="2.86" stroke-linejoin="round" stroke-miterlimit="10" width="116.381" height="116.381"/>
<path fill="none" stroke="#000000" stroke-width="2.86" stroke-miterlimit="10" d="M92.473,68.855
	c0,17.171-13.906,31.089-31.089,31.089c-17.154,0-31.089-13.917-31.089-31.089S44.23,37.767,61.384,37.767
	C78.567,37.767,92.473,51.684,92.473,68.855z"/>
<line fill="none" stroke="#000000" stroke-width="2.86" stroke-miterlimit="10" x1="0.718" y1="19.174" x2="116.56" y2="19.174"/>
<rect x="106.628" y="8.055" width="4.575" height="4.541"/>
<rect x="98.425" y="8.055" width="4.542" height="4.541"/>
<rect x="90.183" y="8.055" width="4.575" height="4.541"/>
<rect x="9.563" y="8.055" width="15.495" height="4.541"/>
<polyline fill="none" stroke="#000000" stroke-width="2.86" stroke-linejoin="round" stroke-miterlimit="10" points="31.776,75.975 
	21.802,75.975 21.802,59.463 31.776,59.463 "/>
</svg>
