<?xml version="1.0" encoding="utf-8"?>
<!-- Generator: Adobe Illustrator 16.0.0, SVG Export Plug-In . SVG Version: 6.00 Build 0)  -->
<!DOCTYPE svg PUBLIC "-//W3C//DTD SVG 1.1//EN" "http://www.w3.org/Graphics/SVG/1.1/DTD/svg11.dtd">
<svg version="1.1" id="Layer_1" xmlns="http://www.w3.org/2000/svg" xmlns:xlink="http://www.w3.org/1999/xlink" x="0px" y="0px"
	 width="119.237px" height="119.238px" viewBox="0 0 119.237 119.238" enable-background="new 0 0 119.237 119.238"
	 xml:space="preserve">
<path fill="none" stroke="#000000" stroke-width="2.86" stroke-linecap="round" stroke-linejoin="round" stroke-miterlimit="10" d="
	M117.808,117.808c0,0-29.577-9.083-58.189-9.083c-28.611,0-58.188,9.083-58.188,9.083s11.122-39.73,11.122-58.189
	C12.552,41.155,1.43,1.43,1.43,1.43s35.32,6.834,58.188,6.834c22.869,0,58.189-6.834,58.189-6.834s-7.798,40.897-7.798,58.189
	C110.01,76.905,117.808,117.808,117.808,117.808z"/>
<line fill="none" stroke="#000000" stroke-width="2.86" stroke-linecap="round" stroke-miterlimit="10" x1="54.435" y1="50.81" x2="19.394" y2="15.769"/>
<polyline fill="none" stroke="#000000" stroke-width="2.86" stroke-linecap="round" stroke-miterlimit="10" points="21.422,26.276 
	19.399,15.769 29.907,17.794 "/>
<line fill="none" stroke="#000000" stroke-width="2.86" stroke-linecap="round" stroke-miterlimit="10" x1="67.808" y1="50.81" x2="102.849" y2="15.769"/>
<polyline fill="none" stroke="#000000" stroke-width="2.86" stroke-linecap="round" stroke-miterlimit="10" points="92.341,17.794 
	102.849,15.769 100.826,26.279 "/>
<line fill="none" stroke="#000000" stroke-width="2.86" stroke-linecap="round" stroke-miterlimit="10" x1="67.808" y1="65.468" x2="102.849" y2="100.508"/>
<polyline fill="none" stroke="#000000" stroke-width="2.86" stroke-linecap="round" stroke-miterlimit="10" points="100.826,90.001 
	102.849,100.508 92.341,98.483 "/>
<line fill="none" stroke="#000000" stroke-width="2.86" stroke-linecap="round" stroke-miterlimit="10" x1="54.435" y1="65.468" x2="19.394" y2="100.508"/>
<polyline fill="none" stroke="#000000" stroke-width="2.86" stroke-linecap="round" stroke-miterlimit="10" points="29.901,98.48 
	19.394,100.505 21.422,89.999 "/>
</svg>
