<?xml version="1.0" encoding="utf-8"?>
<!-- Generator: Adobe Illustrator 16.0.0, SVG Export Plug-In . SVG Version: 6.00 Build 0)  -->
<!DOCTYPE svg PUBLIC "-//W3C//DTD SVG 1.1//EN" "http://www.w3.org/Graphics/SVG/1.1/DTD/svg11.dtd">
<svg version="1.1" id="Layer_1" xmlns="http://www.w3.org/2000/svg" xmlns:xlink="http://www.w3.org/1999/xlink" x="0px" y="0px"
	 width="119.237px" height="129.123px" viewBox="0 0 119.237 129.123" enable-background="new 0 0 119.237 129.123"
	 xml:space="preserve">
<g>
	
		<polyline fill="none" stroke="#000000" stroke-width="2.86" stroke-linecap="round" stroke-linejoin="round" stroke-miterlimit="10" points="
		92.151,11.312 117.808,11.312 117.808,127.693 1.43,127.693 1.43,11.312 26.93,11.312 	"/>
	
		<line fill="none" stroke="#000000" stroke-width="2.86" stroke-linejoin="round" stroke-miterlimit="10" x1="59.619" y1="55.092" x2="59.619" y2="127.693"/>
	<path d="M68.847,82.385c0,1.447-1.173,2.62-2.62,2.62c-1.446,0-2.625-1.173-2.625-2.62s1.179-2.62,2.625-2.62
		C67.674,79.765,68.847,80.938,68.847,82.385"/>
	<path d="M68.847,115.868c0,1.449-1.173,2.619-2.62,2.619c-1.446,0-2.625-1.17-2.625-2.619c0-1.447,1.179-2.617,2.625-2.617
		C67.674,113.25,68.847,114.42,68.847,115.868"/>
	
		<path fill="none" stroke="#000000" stroke-width="2.86" stroke-linecap="round" stroke-linejoin="round" stroke-miterlimit="10" d="
		M74.092,11.32c5.357,1.366,8.401,5.131,8.592,11.993c0.542,19.813-23.411,32.932-23.411,32.932l21.612,14.646
		c0,0,14.786-34.541,14.786-46.582S90.917,1.43,59.624,1.43c-31.292,0-36.744,11.675-36.744,22.88s14.786,46.582,14.786,46.582
		l21.606-14.646c0,0-26.65-13.465-24.551-34.915c0.157-1.564,3.078-9.119,9.697-9.656"/>
	
		<path fill="none" stroke="#000000" stroke-width="2.86" stroke-linecap="round" stroke-linejoin="round" stroke-miterlimit="10" d="
		M36.432,31.832c0-20.757,44.57-21.232,44.57,0"/>
</g>
</svg>
