<?xml version="1.0" encoding="utf-8"?>
<!-- Generator: Adobe Illustrator 16.0.0, SVG Export Plug-In . SVG Version: 6.00 Build 0)  -->
<!DOCTYPE svg PUBLIC "-//W3C//DTD SVG 1.1//EN" "http://www.w3.org/Graphics/SVG/1.1/DTD/svg11.dtd">
<svg version="1.1" id="Layer_1" xmlns="http://www.w3.org/2000/svg" xmlns:xlink="http://www.w3.org/1999/xlink" x="0px" y="0px"
	 width="119.242px" height="119.241px" viewBox="0 0 119.242 119.241" enable-background="new 0 0 119.242 119.241"
	 xml:space="preserve">
<line fill="none" stroke="#000000" stroke-width="2.86" stroke-linecap="round" stroke-miterlimit="10" x1="28.646" y1="68.531" x2="28.646" y2="12.004"/>
<polyline fill="none" stroke="#000000" stroke-width="2.86" stroke-linecap="round" stroke-miterlimit="10" points="21.802,22.112 
	28.646,12.004 35.485,22.112 "/>
<line fill="none" stroke="#000000" stroke-width="2.86" stroke-linecap="round" stroke-miterlimit="10" x1="59.284" y1="68.531" x2="59.284" y2="12.004"/>
<polyline fill="none" stroke="#000000" stroke-width="2.86" stroke-linecap="round" stroke-miterlimit="10" points="52.444,22.112 
	59.284,12.004 66.127,22.112 "/>
<line fill="none" stroke="#000000" stroke-width="2.86" stroke-linecap="round" stroke-miterlimit="10" x1="89.926" y1="68.531" x2="89.926" y2="12.004"/>
<polyline fill="none" stroke="#000000" stroke-width="2.86" stroke-linecap="round" stroke-miterlimit="10" points="83.086,22.112 
	89.926,12.004 96.769,22.112 "/>
<line fill="none" stroke="#000000" stroke-width="2.86" stroke-linecap="round" stroke-miterlimit="10" x1="1.428" y1="77.846" x2="117.806" y2="77.846"/>
<path fill="none" stroke="#000000" stroke-width="2.86" stroke-miterlimit="10" d="M28.646,88.3c0,0-11.499,20.135,0,20.135
	C40.141,108.435,28.646,88.3,28.646,88.3z"/>
<path fill="none" stroke="#000000" stroke-width="2.86" stroke-miterlimit="10" d="M59.284,88.3c0,0-11.496,20.135,0,20.135
	C70.783,108.435,59.284,88.3,59.284,88.3z"/>
<path fill="none" stroke="#000000" stroke-width="2.86" stroke-miterlimit="10" d="M89.926,88.3c0,0-11.496,20.135,0,20.135
	C101.425,108.435,89.926,88.3,89.926,88.3z"/>
<rect x="1.43" y="1.43" fill="none" stroke="#000000" stroke-width="2.86" stroke-linejoin="round" stroke-miterlimit="10" width="116.381" height="116.381"/>
</svg>
