<?xml version="1.0" encoding="utf-8"?>
<!-- Generator: Adobe Illustrator 16.0.0, SVG Export Plug-In . SVG Version: 6.00 Build 0)  -->
<!DOCTYPE svg PUBLIC "-//W3C//DTD SVG 1.1//EN" "http://www.w3.org/Graphics/SVG/1.1/DTD/svg11.dtd">
<svg version="1.1" id="Layer_1" xmlns="http://www.w3.org/2000/svg" xmlns:xlink="http://www.w3.org/1999/xlink" x="0px" y="0px"
	 width="49.847px" height="42.228px" viewBox="3.469 7.815 49.847 42.228" enable-background="new 3.469 7.815 49.847 42.228"
	 xml:space="preserve">
<path fill="#032A54" d="M51.58,17.421H38.878c-0.406-5.362-4.891-9.605-10.356-9.605H28.37c-5.466,0-9.95,4.243-10.355,9.605H5.205
	c-0.959,0-1.736,0.777-1.736,1.735v29.152c0,0.959,0.777,1.734,1.736,1.734H51.58c0.959,0,1.735-0.775,1.735-1.734V19.156
	C53.316,18.198,52.539,17.421,51.58,17.421z M28.37,11.286h0.151c3.551,0,6.483,2.688,6.878,6.135H21.493
	C21.887,13.974,24.819,11.286,28.37,11.286z M49.845,46.572H6.94v-25.68h11.033v3.818c0,0.958,0.775,1.735,1.735,1.735
	c0.958,0,1.735-0.777,1.735-1.735v-3.818h14.002v3.818c0,0.958,0.777,1.735,1.736,1.735c0.958,0,1.734-0.777,1.734-1.735v-3.818
	h10.926v25.68H49.845z"/>
</svg>
