<?xml version="1.0" encoding="utf-8"?>
<!-- Generator: Adobe Illustrator 16.0.0, SVG Export Plug-In . SVG Version: 6.00 Build 0)  -->
<!DOCTYPE svg PUBLIC "-//W3C//DTD SVG 1.1//EN" "http://www.w3.org/Graphics/SVG/1.1/DTD/svg11.dtd">
<svg version="1.1" id="Layer_1" xmlns="http://www.w3.org/2000/svg" xmlns:xlink="http://www.w3.org/1999/xlink" x="0px" y="0px"
	 width="74.597px" height="74.598px" viewBox="0 0 74.597 74.598" enable-background="new 0 0 74.597 74.598" xml:space="preserve">
<path fill="#142D52" d="M73.702,74.598H0.895C0.4,74.598,0,74.198,0,73.703V0.895C0,0.4,0.4,0,0.895,0h72.807
	c0.495,0,0.895,0.4,0.895,0.895v72.808C74.597,74.198,74.197,74.598,73.702,74.598 M1.79,72.809h71.018V1.789H1.79V72.809z"/>
<path fill="#142D52" d="M38.4,63.423c-11.217,0-20.343-9.126-20.343-20.344c0-11.219,9.126-20.345,20.343-20.345
	c11.217,0,20.344,9.126,20.344,20.345C58.744,54.297,49.617,63.423,38.4,63.423 M38.4,24.522c-10.23,0-18.554,8.324-18.554,18.556
	c0,10.23,8.324,18.554,18.554,18.554s18.554-8.324,18.554-18.554C56.954,32.847,48.63,24.522,38.4,24.522"/>
<rect x="0.449" y="11.104" fill="#142D52" width="72.47" height="1.789"/>
<rect x="66.705" y="5.041" fill="#142D52" width="2.863" height="2.843"/>
<rect x="61.571" y="5.041" fill="#142D52" width="2.843" height="2.843"/>
<rect x="56.419" y="5.041" fill="#142D52" width="2.863" height="2.843"/>
<rect x="5.986" y="5.041" fill="#142D52" width="9.692" height="2.843"/>
<path fill="#142D52" d="M19.881,48.427h-6.243c-0.494,0-0.895-0.4-0.895-0.895V37.199c0-0.494,0.401-0.895,0.895-0.895h6.243v1.79
	h-5.348v8.544h5.348V48.427z"/>
</svg>
