<?xml version="1.0" encoding="utf-8"?>
<!-- Generator: Adobe Illustrator 16.0.0, SVG Export Plug-In . SVG Version: 6.00 Build 0)  -->
<!DOCTYPE svg PUBLIC "-//W3C//DTD SVG 1.1//EN" "http://www.w3.org/Graphics/SVG/1.1/DTD/svg11.dtd">
<svg version="1.1" id="Layer_1" xmlns="http://www.w3.org/2000/svg" xmlns:xlink="http://www.w3.org/1999/xlink" x="0px" y="0px"
	 width="74.596px" height="74.598px" viewBox="0 0 74.596 74.598" enable-background="new 0 0 74.596 74.598" xml:space="preserve">
<path fill="#B7B9BD" d="M17.921,43.769c-0.494,0-0.895-0.4-0.895-0.895V7.511c0-0.494,0.401-0.894,0.895-0.894
	c0.494,0,0.895,0.4,0.895,0.894v35.363C18.816,43.369,18.416,43.769,17.921,43.769"/>
<path fill="#B7B9BD" d="M13.641,14.729c-0.173,0-0.348-0.049-0.501-0.154c-0.409-0.278-0.518-0.833-0.24-1.242l5.022-7.417
	l5.02,7.417c0.278,0.409,0.169,0.966-0.24,1.242c-0.407,0.282-0.964,0.17-1.242-0.239l-3.538-5.23l-3.54,5.23
	C14.208,14.591,13.928,14.729,13.641,14.729"/>
<path fill="#B7B9BD" d="M37.089,43.769c-0.494,0-0.895-0.4-0.895-0.895V7.511c0-0.494,0.401-0.894,0.895-0.894
	c0.494,0,0.895,0.4,0.895,0.894v35.363C37.984,43.369,37.583,43.769,37.089,43.769"/>
<path fill="#B7B9BD" d="M41.37,14.729c-0.287,0-0.568-0.138-0.741-0.393l-3.54-5.23l-3.538,5.23
	c-0.278,0.409-0.832,0.522-1.242,0.239c-0.409-0.276-0.518-0.833-0.24-1.242l5.02-7.417l5.022,7.417
	c0.278,0.409,0.169,0.964-0.24,1.242C41.718,14.68,41.543,14.729,41.37,14.729"/>
<path fill="#B7B9BD" d="M56.258,43.769c-0.494,0-0.895-0.4-0.895-0.895V7.511c0-0.494,0.401-0.894,0.895-0.894
	c0.494,0,0.895,0.4,0.895,0.894v35.363C57.153,43.369,56.752,43.769,56.258,43.769"/>
<path fill="#B7B9BD" d="M60.538,14.729c-0.287,0-0.568-0.138-0.741-0.393l-3.538-5.228l-3.538,5.228
	c-0.276,0.409-0.832,0.522-1.243,0.239c-0.408-0.276-0.517-0.833-0.239-1.242l5.02-7.419l5.02,7.419
	c0.278,0.409,0.169,0.966-0.24,1.242C60.886,14.68,60.71,14.729,60.538,14.729"/>
<path fill="#B7B9BD" d="M73.702,49.598H0.895c-0.495,0-0.895-0.4-0.895-0.895c0-0.494,0.4-0.894,0.895-0.894h72.807
	c0.494,0,0.895,0.4,0.895,0.894C74.597,49.198,74.195,49.598,73.702,49.598"/>
<path fill="#B7B9BD" d="M17.921,68.732c-2.079,0-3.065-0.944-3.526-1.738c-2.065-3.557,2.25-11.322,2.748-12.196l0.778-1.361
	l0.778,1.361c0.498,0.874,4.813,8.639,2.748,12.196C20.986,67.788,20,68.732,17.921,68.732 M17.921,57.151
	c-1.501,3.033-2.974,7.23-1.978,8.944c0.121,0.21,0.493,0.848,1.978,0.848c1.487,0,1.857-0.638,1.978-0.849
	C20.897,64.378,19.422,60.183,17.921,57.151"/>
<path fill="#B7B9BD" d="M37.089,68.732c-2.079,0-3.065-0.944-3.526-1.738c-2.065-3.557,2.25-11.322,2.748-12.196l0.778-1.361
	l0.778,1.361c0.498,0.874,4.813,8.639,2.748,12.196C40.154,67.788,39.168,68.732,37.089,68.732 M37.089,57.151
	c-1.501,3.033-2.974,7.23-1.978,8.944c0.121,0.21,0.493,0.848,1.978,0.848c1.487,0,1.857-0.638,1.978-0.849
	C40.065,64.378,38.59,60.183,37.089,57.151"/>
<path fill="#B7B9BD" d="M56.258,68.732c-2.079,0-3.065-0.944-3.526-1.738c-2.065-3.557,2.251-11.322,2.748-12.196l0.778-1.361
	l0.778,1.361c0.498,0.874,4.813,8.639,2.748,12.196C59.323,67.788,58.337,68.732,56.258,68.732 M56.258,57.151
	c-1.501,3.033-2.974,7.23-1.978,8.944c0.121,0.21,0.493,0.848,1.978,0.848c1.487,0,1.857-0.638,1.978-0.849
	C59.234,64.378,57.759,60.183,56.258,57.151"/>
<path fill="#B7B9BD" d="M73.701,74.598H0.894C0.4,74.598,0,74.198,0,73.703V0.895C0,0.4,0.4,0,0.894,0h72.807
	c0.495,0,0.895,0.4,0.895,0.895v72.808C74.596,74.198,74.196,74.598,73.701,74.598 M1.789,72.809h71.018V1.789H1.789V72.809z"/>
</svg>
