<?xml version="1.0" encoding="utf-8"?>
<!-- Generator: Adobe Illustrator 16.0.0, SVG Export Plug-In . SVG Version: 6.00 Build 0)  -->
<!DOCTYPE svg PUBLIC "-//W3C//DTD SVG 1.1//EN" "http://www.w3.org/Graphics/SVG/1.1/DTD/svg11.dtd">
<svg version="1.1" id="Layer_1" xmlns="http://www.w3.org/2000/svg" xmlns:xlink="http://www.w3.org/1999/xlink" x="0px" y="0px"
	 width="436.855px" height="39.106px" viewBox="0 0 436.855 39.106" enable-background="new 0 0 436.855 39.106"
	 xml:space="preserve">
<g>
	<path fill="#122D51" d="M272.455,16.781h-7.2V9.572c0-1.645-1.395-3.039-3.041-3.039s-3.042,1.395-3.042,3.039v7.209h-7.206
		c-1.54,0-2.745,1.204-2.745,2.744c0,1.52,1.229,2.749,2.745,2.749h7.206v7.208c0,1.646,1.396,3.036,3.042,3.036
		s3.041-1.391,3.041-3.036v-7.208h7.2c1.494,0,2.754-1.261,2.754-2.749C275.209,18.036,273.949,16.781,272.455,16.781z"/>
	<path fill="#122D51" d="M64.891,0c-1.702,0-3.133,1.439-3.133,3.13v32.788c0,1.697,1.431,3.137,3.133,3.137
		c1.698,0,3.075-1.408,3.075-3.137V3.13C67.966,1.408,66.588,0,64.891,0z M109.099,32.676H90.898l20.173-27.349
		c0.404-0.498,0.625-1.168,0.625-1.875c0-1.665-1.307-2.971-2.979-2.971H85.825c-1.701,0-3.028,1.306-3.028,2.971
		c0,1.616,1.386,2.979,3.028,2.979h16.873L82.576,33.772c-0.397,0.493-0.628,1.162-0.628,1.83c0,0.96,0.472,1.907,1.205,2.454
		c0.71,0.569,1.587,0.569,1.875,0.569h24.072c1.638,0,2.975-1.338,2.975-2.973C112.074,34.038,110.711,32.676,109.099,32.676z
		 M150.807,32.676h-18.199l20.182-27.349c0.4-0.498,0.624-1.168,0.624-1.875c0-1.665-1.309-2.971-2.978-2.971h-22.904
		c-1.694,0-3.022,1.306-3.022,2.971c0,1.616,1.386,2.979,3.022,2.979h16.882l-20.129,27.342c-0.403,0.493-0.63,1.162-0.63,1.83
		c0,0.953,0.474,1.9,1.216,2.454c0.71,0.569,1.584,0.569,1.874,0.569h24.064c1.642,0,2.976-1.338,2.976-2.973
		C153.782,34.038,152.42,32.676,150.807,32.676z M192.098,32.676h-18.119V21.783h9.193c1.668,0,2.973-1.304,2.973-2.971
		c0-1.673-1.305-2.98-2.973-2.98h-9.193V6.431H191.3c1.696,0,3.029-1.307,3.029-2.979c0-1.665-1.333-2.971-3.029-2.971h-20.404
		c-1.726,0-3.137,1.382-3.137,3.078v31.937c0,1.696,1.436,3.13,3.137,3.13h21.202c1.669,0,2.973-1.307,2.973-2.973
		S193.767,32.676,192.098,32.676z M234.066,0c-1.638,0-3.025,1.415-3.025,3.08v24.086c-5.142-7.086-14.952-21.075-18.154-25.651
		l-0.17-0.245C212.152,0.481,211.239,0,210.266,0c-1.904,0-3.083,1.598-3.083,3.08v32.945c0,1.666,1.356,3.029,3.028,3.029
		c1.672,0,3.077-1.388,3.077-3.029V12.023l18.358,25.789c0.55,0.813,1.353,1.249,2.31,1.249c0.108,0,0.225-0.007,0.248-0.014
		c1.655-0.101,2.946-1.426,2.946-3.022V3.08C237.149,1.415,235.736,0,234.066,0z M38.709,2.153
		c-0.035-0.095-0.078-0.188-0.126-0.273c-0.324-0.763-0.931-1.342-1.703-1.627l-0.093-0.036c-0.273-0.107-0.53-0.145-0.745-0.153
		l-0.024-0.007h-0.435l-0.017,0.007c-0.162,0.013-0.332,0.032-0.523,0.088l-0.157,0.045c-0.942,0.296-1.676,1.021-1.963,1.931
		l-8.031,24.294l-8.018-24.25c-0.034-0.106-0.081-0.202-0.133-0.303c-0.322-0.739-0.894-1.294-1.673-1.604l-0.12-0.056
		c-0.347-0.133-0.636-0.153-0.902-0.153l-0.084,0.007V0.057H13.71l-0.017,0.007c-0.222,0.013-0.456,0.051-0.705,0.153h-0.008
		c-0.91,0.308-1.625,1.022-1.895,1.912L0.151,35.212l-0.039,0.139C0.063,35.521,0,35.748,0,36.045c0,1.301,0.896,2.536,2.044,2.891
		c0.407,0.171,0.776,0.171,1.116,0.171c1.314-0.069,2.403-0.898,2.778-2.078l8.032-24.301l8.021,24.25h0.003l0.008,0.039
		c0.269,0.852,0.914,1.533,1.768,1.867l0.12,0.057c0.271,0.114,0.53,0.146,0.757,0.158l0.026,0.008h0.555l0.018-0.013
		c0.19-0.014,0.382-0.046,0.56-0.122c0.308-0.1,0.602-0.244,0.87-0.44c0.268-0.188,0.501-0.418,0.666-0.655
		c0.208-0.278,0.366-0.6,0.461-0.94l8.008-24.208l8.034,24.29c0.387,1.229,1.569,2.09,2.876,2.09c0.272,0,0.606,0,0.935-0.135
		c1.256-0.402,2.132-1.59,2.132-2.883c0-0.359-0.072-0.713-0.186-0.99L38.709,2.153z"/>
	<path fill="#122D51" d="M388.511,0c-1.695,0-3.127,1.439-3.127,3.13v32.788c0,1.697,1.432,3.137,3.127,3.137
		c1.702,0,3.081-1.408,3.081-3.137V3.13C391.592,1.408,390.213,0,388.511,0z M433.773,0c-1.638,0-3.022,1.415-3.022,3.08v24.086
		c-4.866-6.695-13.945-19.636-18.014-25.436l-0.315-0.461C411.857,0.481,410.945,0,409.967,0c-1.898,0-3.078,1.598-3.078,3.08
		v32.945c0,1.666,1.361,3.029,3.027,3.029c1.673,0,3.081-1.388,3.081-3.029V12.023l18.352,25.781
		c0.559,0.821,1.352,1.257,2.311,1.257c0.114,0,0.223-0.007,0.251-0.014c1.651-0.101,2.945-1.426,2.945-3.022V3.08
		C436.855,1.415,435.448,0,433.773,0z M358.735,1.779C358.41,1.117,357.471,0,356.009,0c-1.474,0-2.479,1.1-2.802,1.818
		L338.244,34.72c-0.24,0.505-0.24,1.003-0.24,1.306c0,1.175,0.685,2.248,1.708,2.72c0.39,0.195,0.863,0.31,1.317,0.31
		c1.15,0,2.248-0.738,2.744-1.823l4.045-8.969h16.337l4.077,8.98c0.458,1.111,1.527,1.812,2.763,1.812
		c0.43,0,0.842-0.107,1.212-0.29c1.066-0.486,1.764-1.564,1.764-2.739c0-0.303,0-0.808-0.231-1.262L358.735,1.779z M350.45,22.477
		l5.559-12.273l5.518,12.273H350.45z M320.53,2.153c-0.029-0.095-0.073-0.188-0.127-0.273c-0.325-0.763-0.926-1.342-1.706-1.627
		l-0.083-0.036c-0.275-0.107-0.527-0.145-0.75-0.153l-0.02-0.007h-0.439l-0.016,0.007c-0.162,0.013-0.328,0.032-0.527,0.088
		l-0.154,0.045c-0.94,0.296-1.672,1.021-1.961,1.931l-8.028,24.294l-8.022-24.25c-0.031-0.106-0.079-0.202-0.132-0.303
		c-0.319-0.739-0.891-1.294-1.676-1.604l-0.121-0.056c-0.346-0.133-0.634-0.153-0.901-0.153l-0.088,0.007V0.057h-0.246l-0.02,0.007
		c-0.215,0.013-0.455,0.051-0.704,0.153h-0.003c-0.907,0.308-1.622,1.022-1.9,1.912l-10.932,33.084l-0.041,0.139
		c-0.041,0.17-0.119,0.397-0.119,0.694c0,1.301,0.905,2.536,2.058,2.891c0.402,0.171,0.776,0.171,1.115,0.171
		c1.308-0.069,2.399-0.898,2.771-2.078l8.037-24.301l8.02,24.25l0,0l0.016,0.039c0.265,0.852,0.907,1.533,1.761,1.867l0.119,0.057
		c0.277,0.114,0.538,0.146,0.763,0.158l0.024,0.008h0.554l0.018-0.013c0.188-0.014,0.385-0.046,0.557-0.122
		c0.312-0.1,0.604-0.244,0.874-0.44c0.273-0.188,0.498-0.418,0.666-0.655c0.205-0.278,0.371-0.6,0.464-0.94l8.008-24.208
		l8.026,24.29c0.396,1.229,1.57,2.09,2.885,2.09c0.271,0,0.606,0,0.929-0.135c1.261-0.402,2.138-1.59,2.138-2.883
		c0-0.359-0.075-0.713-0.19-0.99L320.53,2.153z"/>
</g>
</svg>
